grf
version=1
nRows=20
nColumns=19
inDegrees=yes
endheader
time	ground_force_1_vx	ground_force_1_vy	ground_force_1_vz	ground_force_1_px	ground_force_1_py	ground_force_1_pz	ground_moment_1_mx	ground_moment_1_my	ground_moment_1_mz	ground_force_2_vx	ground_force_2_vy	ground_force_2_vz	ground_force_2_px	ground_force_2_py	ground_force_2_pz	ground_moment_2_mx	ground_moment_2_my	ground_moment_2_mz
1.730000	13.492034	1538.443604	-492.760315	0.152750	0.000000	-0.815247	0.000000	12.263685	0.000000	-22.210648	1576.971680	493.469604	0.179615	0.000000	-1.593545	0.000000	-16.254623	-0.000000
1.731000	17.348375	1541.807129	-491.509583	0.152835	0.000000	-0.813963	0.000000	11.011712	0.000000	-22.775105	1579.047119	493.670410	0.179927	0.000000	-1.593704	0.000000	-16.254455	-0.000000
1.732000	14.951875	1541.161499	-491.592224	0.152741	0.000000	-0.814587	0.000000	11.875348	0.000000	-22.372433	1572.040771	494.555115	0.180287	0.000000	-1.594329	0.000000	-16.046247	-0.000000
1.733000	14.952255	1522.753662	-492.520477	0.151831	0.000000	-0.811264	0.000000	12.374204	0.000000	-22.129753	1577.770996	493.831909	0.180367	0.000000	-1.593678	-0.000000	-15.872912	0.000000
1.734000	14.670161	1535.557983	-492.638641	0.152597	0.000000	-0.812756	0.000000	11.903789	0.000000	-22.533392	1572.827026	495.720276	0.180305	0.000000	-1.593588	0.000000	-15.964147	-0.000000
1.735000	14.428313	1537.147827	-491.836731	0.152864	0.000000	-0.813926	0.000000	11.899523	0.000000	-22.493221	1579.839722	494.395325	0.180225	0.000000	-1.593989	0.000000	-16.180081	-0.000000
1.736000	14.468558	1529.782837	-491.795654	0.152740	0.000000	-0.812912	0.000000	11.913960	0.000000	-23.016266	1576.496460	494.275024	0.180082	0.000000	-1.593886	0.000000	-16.310627	-0.000000
1.737000	12.455180	1532.341187	-491.757355	0.152831	0.000000	-0.812964	0.000000	11.812128	0.000000	-22.573009	1580.308594	496.006409	0.179975	0.000000	-1.592970	0.000000	-16.470242	-0.000000
1.738000	14.387688	1532.809570	-491.351013	0.153069	0.000000	-0.813550	0.000000	11.686246	0.000000	-22.895615	1578.728516	496.004333	0.180355	0.000000	-1.594537	0.000000	-16.237969	-0.000000
1.739000	14.912771	1534.886841	-492.401154	0.153311	0.000000	-0.813581	0.000000	11.700998	0.000000	-22.815273	1575.387207	495.361053	0.180668	0.000000	-1.594288	0.000000	-16.084300	0.000000
1.740000	13.943474	1529.915161	-491.758057	0.153419	0.000000	-0.813237	0.000000	11.726573	0.000000	-23.418661	1582.239990	494.999756	0.180674	0.000000	-1.593837	0.000000	-16.137877	-0.000000
1.741000	11.930098	1534.564697	-491.919861	0.153233	0.000000	-0.813210	0.000000	11.715281	0.000000	-23.217396	1566.641357	494.516846	0.181291	0.000000	-1.595356	0.000000	-15.806469	-0.000000
1.742000	14.348584	1535.202881	-491.149231	0.153278	0.000000	-0.813440	0.000000	11.505499	0.000000	-23.619652	1568.373535	496.045258	0.179655	0.000000	-1.593339	0.000000	-16.642882	-0.000000
1.743000	11.201889	1525.570557	-491.960754	0.153843	0.000000	-0.813214	0.000000	11.535826	0.000000	-24.102802	1580.490479	495.321106	0.181007	0.000000	-1.593888	0.000000	-16.010304	0.000000
1.744000	13.824642	1528.316772	-492.645172	0.153241	0.000000	-0.812567	0.000000	11.793077	0.000000	-22.737278	1576.327759	495.201172	0.180317	0.000000	-1.596153	0.000000	-16.668145	0.000000
1.745000	13.539886	1531.983154	-492.242615	0.153832	0.000000	-0.813376	0.000000	11.607053	0.000000	-24.022324	1587.818115	495.603699	0.180929	0.000000	-1.594102	0.000000	-16.155015	-0.000000
1.746000	13.779833	1524.287598	-492.404907	0.153886	0.000000	-0.813054	0.000000	11.719605	0.000000	-25.108307	1579.688477	495.723969	0.180519	0.000000	-1.593046	-0.000000	-16.324528	-0.000000
1.747000	13.216407	1520.458252	-492.726440	0.153323	0.000000	-0.812542	0.000000	11.923772	0.000000	-24.987797	1585.754517	495.162598	0.181128	0.000000	-1.594110	0.000000	-16.198856	-0.000000
1.748000	13.333717	1529.570557	-492.848145	0.154168	0.000000	-0.813081	0.000000	11.711098	0.000000	-25.229509	1579.222168	496.287811	0.181175	0.000000	-1.594442	0.000000	-16.187843	0.000000
1.749000	14.222905	1522.216675	-491.881104	0.153648	0.000000	-0.812660	0.000000	11.826883	0.000000	-25.228542	1578.902100	495.242371	0.180953	0.000000	-1.594206	0.000000	-16.168778	-0.000000
